<svg width="18" height="19" viewBox="0 0 18 19" fill="none" xmlns="http://www.w3.org/2000/svg">
<path fill-rule="evenodd" clip-rule="evenodd" d="M9.89986 2.04645C9.96081 2.09789 10.0173 2.15442 10.0686 2.21544C10.7959 3.07923 11.4489 3.6301 12.0278 3.86804C12.4792 4.05361 13.2014 4.09025 14.1944 3.97796C14.5803 3.93433 14.9285 4.21177 14.9721 4.59764C14.9751 4.62387 14.9766 4.65024 14.9766 4.67664V11.4416C14.9766 11.8937 14.8024 12.3284 14.4902 12.6554C12.3374 14.9105 10.5111 16.038 9.0113 16.038C7.51157 16.038 5.68387 14.9106 3.52821 12.6556C3.21552 12.3285 3.04102 11.8934 3.04102 11.4409V4.67576C3.04102 4.28743 3.35582 3.97263 3.74414 3.97263C3.77027 3.97263 3.79639 3.97409 3.82236 3.977C4.79995 4.08643 5.5062 4.05011 5.9411 3.86804C6.53435 3.61967 7.18621 3.07686 7.89666 2.2396L7.91821 2.21414C8.41912 1.62062 9.30634 1.54554 9.89986 2.04645ZM9.29899 2.75842C9.10067 2.59106 8.80521 2.61422 8.63451 2.80998L8.62938 2.81597L8.60702 2.84238C7.80993 3.78174 7.05185 4.41302 6.30088 4.72741C5.74052 4.96201 4.98951 5.01898 4.01235 4.9324L3.97266 4.92879V11.4409C3.97266 11.6501 4.05196 11.8513 4.19434 12.0041L4.20164 12.0118C6.19766 14.0998 7.82943 15.1064 9.0113 15.1064C10.193 15.1064 11.8232 14.0999 13.8163 12.0121C13.9606 11.861 14.0422 11.6609 14.0449 11.4522L14.0449 11.4416V4.92996L14.0318 4.9312C13.0383 5.02273 12.2695 4.96894 11.6925 4.73742L11.6736 4.72972C10.9305 4.42427 10.1712 3.78378 9.35595 2.81545C9.34109 2.7978 9.32497 2.78127 9.30771 2.76597L9.29899 2.75842ZM12.3518 7.34726C12.5342 7.17079 12.5418 6.88001 12.3677 6.69415C12.1918 6.5064 11.897 6.4968 11.7093 6.67269L8.13328 10.023L6.41334 8.31382L6.40783 8.30843C6.22497 8.13251 5.9341 8.13522 5.75457 8.31588C5.57323 8.49836 5.57415 8.7933 5.75664 8.97465L7.73827 10.9439L7.74377 10.9493C7.85083 11.0523 7.9949 11.094 8.13197 11.0747C8.26334 11.09 8.4003 11.0495 8.50438 10.952L12.3463 7.35257L12.3518 7.34726Z" fill="#FA3461"/>
</svg>
