<svg width="18" height="18" viewBox="0 0 18 18" fill="none" xmlns="http://www.w3.org/2000/svg">
<path fill-rule="evenodd" clip-rule="evenodd" d="M6.12777 3.05852C6.12366 2.80545 5.91671 2.60156 5.66201 2.60156C5.40475 2.60156 5.19619 2.80959 5.19619 3.06621L5.196 4.00356L3.45789 4.00432C3.2043 4.00844 3 4.21539 3 4.47008C3 4.72735 3.20845 4.9359 3.46559 4.9359L5.196 4.93556L5.19626 5.87928C5.20037 6.13236 5.40732 6.33624 5.66201 6.33624C5.91928 6.33624 6.12783 6.12822 6.12783 5.8716L6.127 4.93556L14.5421 4.93584C14.7957 4.93172 15 4.72477 15 4.47008C15 4.21281 14.7915 4.00426 14.5344 4.00426L6.127 4.00356L6.12777 3.05852ZM12.3033 7.13422C12.558 7.13422 12.7649 7.33811 12.7691 7.59118L12.769 8.53656L14.5344 8.53692C14.7915 8.53692 15 8.74547 15 9.00274C15 9.25743 14.7957 9.46438 14.5421 9.4685L12.769 9.46756L12.7691 10.4043C12.7691 10.6609 12.5606 10.8689 12.3033 10.8689C12.0486 10.8689 11.8417 10.665 11.8375 10.4119L11.837 9.46756L3.46559 9.46856C3.20845 9.46856 3 9.26 3 9.00274C3 8.74805 3.2043 8.5411 3.45789 8.53698L11.837 8.53656L11.8375 7.59887C11.8375 7.34225 12.046 7.13422 12.3033 7.13422ZM8.29745 11.6669C8.55214 11.6669 8.75909 11.8708 8.7632 12.1238L8.763 13.0696L14.5344 13.0696C14.7915 13.0696 15 13.2781 15 13.5354C15 13.7901 14.7957 13.997 14.5421 14.0012L8.763 14.0006L8.76327 14.9369C8.76327 15.1935 8.55471 15.4016 8.29745 15.4016C8.04275 15.4016 7.8358 15.1977 7.83169 14.9446L7.831 14.0006L3.46559 14.0012C3.20845 14.0012 3 13.7927 3 13.5354C3 13.2807 3.2043 13.0738 3.45789 13.0696L7.831 13.0696L7.83162 12.1315C7.83162 11.8749 8.04018 11.6669 8.29745 11.6669Z" fill="#353D49"/>
</svg>
