<svg width="19" height="18" viewBox="0 0 19 18" fill="none" xmlns="http://www.w3.org/2000/svg">
<path d="M13.7207 7.78357C13.5616 8.04046 13.371 8.29238 13.1506 8.53933C13.0436 8.65948 12.9137 8.75712 12.7686 8.82655C12.6235 8.89598 12.466 8.93581 12.3053 8.94372C12.1445 8.953 11.9835 8.93023 11.8315 8.87674C11.6796 8.82326 11.5398 8.74011 11.4203 8.63214C11.2824 8.50824 11.1743 8.35469 11.1043 8.18303C11.0342 8.01136 11.004 7.82606 11.0159 7.64103C11.0656 6.85544 10.8104 5.93229 10.2568 4.89478C9.97671 4.37437 9.64193 3.93019 9.2425 3.56226C9.2016 3.82521 9.13442 4.08339 9.04196 4.33293C8.81507 4.94035 8.48913 5.50598 8.07737 6.00687C7.7915 6.35751 7.46554 6.67345 7.10616 6.94826C6.54265 7.38083 6.07859 7.94268 5.767 8.57082C5.44819 9.20888 5.28302 9.91267 5.28471 10.626C5.28471 11.8673 5.77363 13.0341 6.66033 13.9142C7.55033 14.7959 8.73203 15.2798 9.99163 15.2798C11.2512 15.2798 12.4329 14.7959 13.3229 13.9142C14.2096 13.0358 14.6986 11.8673 14.6986 10.626C14.6986 9.97626 14.5643 9.34481 14.3008 8.75147C14.1466 8.40342 13.9527 8.08024 13.7207 7.78357Z" fill="#FFF7DB"/>
<path d="M15.33 8.29073C15.0083 7.56656 14.5405 6.91657 13.9561 6.38145L13.4738 5.93893C13.4574 5.92432 13.4377 5.91395 13.4164 5.90873C13.395 5.90351 13.3728 5.90361 13.3515 5.90901C13.3302 5.91441 13.3106 5.92495 13.2944 5.9397C13.2781 5.95445 13.2657 5.97297 13.2583 5.99362L13.0429 6.61182C12.9086 6.99965 12.6617 7.39576 12.312 7.78524C12.2888 7.8101 12.2622 7.81673 12.244 7.81839C12.2258 7.82004 12.1976 7.81673 12.1727 7.79352C12.1495 7.77364 12.1379 7.7438 12.1396 7.71397C12.2009 6.71624 11.9026 5.59088 11.2496 4.36609C10.7093 3.34847 9.9585 2.55459 9.02043 2.00103L8.33594 1.59829C8.24644 1.54525 8.13208 1.61486 8.13705 1.71928L8.17351 2.51481C8.19837 3.05843 8.13539 3.53907 7.98623 3.93849C7.80392 4.42741 7.54206 4.88153 7.20727 5.28924C6.97428 5.57259 6.71021 5.82888 6.42002 6.05329C5.72112 6.59055 5.15282 7.27897 4.75768 8.06699C4.36352 8.86188 4.1582 9.73705 4.15771 10.6243C4.15771 11.4066 4.31185 12.164 4.61681 12.8783C4.91126 13.5661 5.3362 14.1903 5.86812 14.7163C6.4051 15.2467 7.02827 15.6644 7.72271 15.9544C8.44201 16.256 9.20439 16.4085 9.99164 16.4085C10.7789 16.4085 11.5413 16.256 12.2606 15.9561C12.9533 15.6677 13.5832 15.2472 14.1152 14.718C14.6522 14.1876 15.0731 13.5678 15.3665 12.88C15.671 12.1676 15.8272 11.4007 15.8256 10.626C15.8256 9.81717 15.6598 9.03158 15.33 8.29073ZM13.323 13.9142C12.4329 14.7959 11.2512 15.2798 9.99164 15.2798C8.73205 15.2798 7.55034 14.7959 6.66034 13.9142C5.77365 13.0341 5.28472 11.8673 5.28472 10.626C5.28472 9.90501 5.44715 9.21389 5.76702 8.57083C6.0786 7.94269 6.54266 7.38084 7.10617 6.94827C7.46555 6.67347 7.79151 6.35752 8.07739 6.00688C8.49173 5.50139 8.81657 4.93788 9.04197 4.33294C9.13443 4.08341 9.20162 3.82522 9.24251 3.56227C9.64194 3.9302 9.97673 4.37438 10.2568 4.89479C10.8104 5.9323 11.0656 6.85546 11.0159 7.64105C11.004 7.82607 11.0342 8.01138 11.1043 8.18304C11.1743 8.3547 11.2824 8.50825 11.4203 8.63215C11.5398 8.74012 11.6796 8.82327 11.8315 8.87676C11.9835 8.93025 12.1445 8.95301 12.3053 8.94374C12.6318 8.92716 12.9318 8.78297 13.1506 8.53934C13.371 8.29239 13.5616 8.04047 13.7207 7.78358C13.9527 8.08025 14.1467 8.40344 14.3008 8.75148C14.5643 9.34482 14.6986 9.97627 14.6986 10.626C14.6986 11.8673 14.2096 13.0358 13.323 13.9142Z" fill="#FF9100"/>
</svg>
