<?xml version="1.0" encoding="UTF-8"?>
<svg width="18px" height="15px" viewBox="0 0 18 15" version="1.1" xmlns="http://www.w3.org/2000/svg" xmlns:xlink="http://www.w3.org/1999/xlink">
    <!-- Generator: Sketch 63.1 (92452) - https://sketch.com -->
    <title>🎨Color</title>
    <desc>Created with Sketch.</desc>
    <defs>
        <path d="M870.709858,143 C869.52335,143.011536 868.381929,143.448995 867.499981,144.23025 C867.189237,144.502302 866.720766,144.502302 866.410023,144.23025 C865.54098,143.460063 864.419353,143.023389 863.250144,143 C861.849193,142.994675 860.504629,143.542742 859.517766,144.521419 C858.530903,145.500096 857.984262,146.827547 858.000345,148.206291 C858.002413,149.526484 858.480831,150.803042 859.350293,151.808348 C860.080265,152.674416 864.860082,156.522516 866.47002,157.811777 C866.777333,158.062741 867.222667,158.062741 867.52998,157.811777 C869.139918,156.522516 873.919735,152.674416 874.649707,151.808348 C875.519169,150.803042 875.997587,149.526484 875.999655,148.206291 C876.015738,146.827547 875.469097,145.500096 874.482234,144.521419 C873.495371,143.542742 872.150807,142.994675 870.749856,143 L870.709858,143 Z" id="path-1"></path>
    </defs>
    <g id="Symbols" stroke="none" stroke-width="1" fill="none" fill-rule="evenodd">
        <g id="Basic-Info-/-Job-/-Top" transform="translate(-858.000000, -143.000000)">
            <g id="Basic-Info-/-Top-2">
                <mask id="mask-2" fill="white">
                    <use xlink:href="#path-1"></use>
                </mask>
                <path stroke="#2369ff" stroke-width="1.2" d="M870.712075,143.599996 C869.674235,143.610098 868.672066,143.993537 867.897831,144.679377 C867.627158,144.916361 867.291219,145.034289 866.955002,145.034289 C866.618784,145.034289 866.282845,144.916361 866.014795,144.681687 C865.249175,144.003172 864.264401,143.620409 863.238144,143.59988 C862.006569,143.595278 860.81481,144.08015 859.940259,144.947447 C859.06937,145.811112 858.586109,146.982343 858.600304,148.199293 C858.602188,149.382169 859.02916,150.519828 859.804109,151.415855 C860.529916,152.276906 865.255546,156.070529 867.150466,157.347052 C868.744454,156.070529 873.470084,152.276906 874.19093,151.421665 C874.97084,150.519828 875.397812,149.382169 875.399656,148.205351 C875.413891,146.982343 874.93063,145.811112 874.059741,144.947447 C873.183981,144.078951 871.990071,143.595273 870.712075,143.599996 Z"></path>
            </g>
        </g>
    </g>
</svg>