<svg width="18" height="19" viewBox="0 0 18 19" fill="none" xmlns="http://www.w3.org/2000/svg">
<path fill-rule="evenodd" clip-rule="evenodd" d="M16.0807 4.34136C16.1038 4.50268 16.0984 4.66637 16.0652 4.82505L16.0226 4.98179L12.5472 15.3597C12.3027 16.0899 11.5125 16.4836 10.7823 16.2391C10.5908 16.175 10.4161 16.0702 10.2698 15.9326L10.1656 15.8234L7.84504 13.1111C7.67779 12.9157 7.70068 12.6216 7.89616 12.4544C8.0672 12.308 8.31372 12.3072 8.48472 12.4403L8.55294 12.5055L10.8735 15.2177C10.928 15.2814 10.9987 15.3291 11.0782 15.3557C11.2936 15.4278 11.5247 15.3326 11.6303 15.1404L11.6638 15.0639L15.1392 4.68594C15.1621 4.61758 15.1687 4.5448 15.1585 4.47343C15.1263 4.24859 14.9375 4.08479 14.7183 4.07661L14.6349 4.08102L3.23596 5.71342C3.14414 5.72657 3.0584 5.76701 2.98985 5.8295C2.82462 5.98012 2.7936 6.223 2.90375 6.40787L2.95963 6.48312L6.03823 9.86153L12.286 5.9217C12.5036 5.78446 12.7913 5.8496 12.9285 6.0672C13.0505 6.26063 13.0126 6.5094 12.8498 6.65869L12.783 6.7097L6.41338 10.7271L6.39823 10.7335L5.88325 14.3881C5.86478 14.5188 5.89513 14.6518 5.96849 14.7615C6.11495 14.9807 6.39469 15.0575 6.62821 14.9561L6.71327 14.9096L7.31644 14.5065C7.53034 14.3636 7.81962 14.4211 7.96256 14.635C8.08962 14.8252 8.05829 15.0748 7.89953 15.2284L7.83409 15.2811L7.23092 15.6842C6.55656 16.1349 5.64455 15.9536 5.19389 15.2792C5.02192 15.0219 4.93638 14.7179 4.94725 14.4112L4.96077 14.2578L5.473 10.6233L2.27112 7.11075C1.78477 6.57723 1.79022 5.76879 2.26172 5.24236L2.36222 5.141C2.52748 4.99035 2.72591 4.88222 2.94034 4.82471L3.10389 4.79119L14.5028 3.15879C15.2651 3.04963 15.9716 3.57908 16.0807 4.34136Z" fill="#FA1E50"/>
</svg>
