<svg width="24" height="24" viewBox="0 0 24 24" xmlns="http://www.w3.org/2000/svg">
    <g fill="none" fill-rule="evenodd">
        <path d="M0 0h24v24H0z"/>
        <path d="M17.04 13.969a3.164 3.164 0 0 1 3.163 3.164v2.625c0 .97-.787 1.758-1.758 1.758H5.555c-.971 0-1.758-.787-1.758-1.758v-2.625a3.164 3.164 0 0 1 3.164-3.164zm0 1.64H6.96c-.84 0-1.522.682-1.522 1.524v2.625c0 .065.052.117.117.117h12.89a.117.117 0 0 0 .117-.117v-2.625c0-.842-.682-1.524-1.523-1.524zM12.011 2.391a5.168 5.168 0 1 1 0 10.336 5.168 5.168 0 0 1 0-10.336zm0 1.64a3.527 3.527 0 1 0 0 7.055 3.527 3.527 0 0 0 0-7.055z" fill="#353D49"/>
        <path d="M17.04 13.969a3.164 3.164 0 0 1 3.163 3.164v2.625c0 .97-.787 1.758-1.758 1.758H5.555c-.971 0-1.758-.787-1.758-1.758v-2.625a3.164 3.164 0 0 1 3.164-3.164zm0 1.64H6.96c-.84 0-1.522.682-1.522 1.524v2.625c0 .065.052.117.117.117h12.89a.117.117 0 0 0 .117-.117v-2.625c0-.842-.682-1.524-1.523-1.524zM12.011 2.391a5.168 5.168 0 1 1 0 10.336 5.168 5.168 0 0 1 0-10.336zm0 1.64a3.527 3.527 0 1 0 0 7.055 3.527 3.527 0 0 0 0-7.055z" fill="#FFF"/>
    </g>
</svg>
