<svg width="18" height="19" viewBox="0 0 18 19" fill="none" xmlns="http://www.w3.org/2000/svg">
<path fill-rule="evenodd" clip-rule="evenodd" d="M12.0915 3.44535C11.1028 3.45508 10.1516 3.82548 9.41665 4.48697C9.1577 4.71732 8.76731 4.71732 8.50835 4.48697C7.78415 3.83485 6.84946 3.46512 5.87512 3.44535C4.70766 3.4408 3.58719 3.90486 2.7648 4.73351C1.94242 5.56216 1.48689 6.68612 1.50029 7.85351C1.50201 8.97132 1.90069 10.0522 2.62524 10.9034C3.23355 11.6367 7.21673 14.8949 8.55835 15.9865C8.81444 16.199 9.18556 16.199 9.44165 15.9865C10.7833 14.8949 14.7664 11.6367 15.3748 10.9034C16.0993 10.0522 16.498 8.97132 16.4997 7.85351C16.5131 6.68612 16.0576 5.56216 15.2352 4.73351C14.4128 3.90486 13.2923 3.4408 12.1249 3.44535H12.0915Z" fill="#E9EAEB"/>
</svg>
