<svg width="21" height="21" viewBox="0 0 21 21" fill="none" xmlns="http://www.w3.org/2000/svg">
<path fill-rule="evenodd" clip-rule="evenodd" d="M16.0703 3.31201H4.42969C3.28089 3.31201 2.34961 4.24329 2.34961 5.39209V13.3022L2.34989 13.3366C2.36826 14.4696 3.29238 15.3823 4.42969 15.3823H8.52369L10.1085 18.0834L10.1172 18.098C10.4857 18.7033 11.272 18.9017 11.8838 18.5427L11.8981 18.5342L11.9141 18.5244C12.0921 18.4134 12.2406 18.2608 12.3468 18.0797L13.9294 15.3823H16.0703C17.2191 15.3823 18.1504 14.451 18.1504 13.3022V5.39209C18.1504 4.24329 17.2191 3.31201 16.0703 3.31201ZM4.42969 4.34717H16.0703C16.6474 4.34717 17.1152 4.815 17.1152 5.39209V13.3022C17.1152 13.8793 16.6474 14.3472 16.0703 14.3472H13.633C13.4494 14.3472 13.2795 14.4445 13.1866 14.6028L11.454 17.5559L11.4497 17.5629C11.4295 17.5951 11.4024 17.6226 11.3705 17.6434L11.3641 17.6474L11.3594 17.6502L11.3543 17.6531C11.2329 17.7205 11.0798 17.6818 11.0049 17.5653L11.0019 17.5605L10.9984 17.5547L9.26653 14.6028C9.17361 14.4445 9.00374 14.3472 8.82012 14.3472H4.42969C3.85259 14.3472 3.38477 13.8793 3.38477 13.3022V5.39209C3.38477 4.815 3.85259 4.34717 4.42969 4.34717ZM6.49023 10.1284C6.92171 10.1284 7.27148 9.77864 7.27148 9.34717C7.27148 8.9157 6.92171 8.56592 6.49023 8.56592C6.05876 8.56592 5.70898 8.9157 5.70898 9.34717C5.70898 9.77864 6.05876 10.1284 6.49023 10.1284ZM11.041 9.34717C11.041 9.77864 10.6912 10.1284 10.2598 10.1284C9.82829 10.1284 9.47852 9.77864 9.47852 9.34717C9.47852 8.9157 9.82829 8.56592 10.2598 8.56592C10.6912 8.56592 11.041 8.9157 11.041 9.34717ZM14.0293 10.1284C14.4608 10.1284 14.8105 9.77864 14.8105 9.34717C14.8105 8.9157 14.4608 8.56592 14.0293 8.56592C13.5978 8.56592 13.248 8.9157 13.248 9.34717C13.248 9.77864 13.5978 10.1284 14.0293 10.1284Z" fill="#2369FF"/>
</svg>
