<svg width="19" height="19" viewBox="0 0 19 19" fill="none" xmlns="http://www.w3.org/2000/svg">
<path fill-rule="evenodd" clip-rule="evenodd" d="M14.4335 13.5205L16.4885 15.5755C16.7285 15.8155 16.7285 16.2055 16.4885 16.4455C16.2507 16.6833 15.8667 16.6855 15.626 16.453L13.571 14.398C13.331 14.158 13.331 13.768 13.571 13.528C13.8088 13.2903 14.1935 13.288 14.4335 13.5205ZM8.504 1.95703C12.0965 1.95703 15.008 4.86928 15.008 8.46103C15.008 12.0535 12.0957 14.965 8.504 14.965C4.9115 14.965 2 12.052 2 8.46103C2 4.86853 4.91225 1.95703 8.504 1.95703ZM8.504 3.18703C5.59175 3.18703 3.23075 5.54878 3.23075 8.46103C3.23075 11.3733 5.59175 13.7343 8.50325 13.7343C11.4163 13.7343 13.7773 11.3733 13.7773 8.46103C13.7773 5.54878 11.4163 3.18778 8.504 3.18778V3.18703Z" fill="#AAADB3"/>
</svg>
