<svg width="20" height="21" viewBox="0 0 20 21" fill="none" xmlns="http://www.w3.org/2000/svg">
<path fill-rule="evenodd" clip-rule="evenodd" d="M15.8203 3.29869H4.17969C3.03089 3.29869 2.09961 4.22997 2.09961 5.37877V13.2889L2.09989 13.3233C2.11826 14.4563 3.04238 15.369 4.17969 15.369H8.27369L9.85845 18.07L9.86725 18.0847C10.2357 18.6899 11.022 18.8884 11.6338 18.5294L11.6481 18.5209L11.6641 18.5111C11.8421 18.4 11.9906 18.2475 12.0968 18.0664L13.6794 15.369H15.8203C16.9691 15.369 17.9004 14.4377 17.9004 13.2889V5.37877C17.9004 4.22997 16.9691 3.29869 15.8203 3.29869ZM4.17969 4.33385H15.8203C16.3974 4.33385 16.8652 4.80167 16.8652 5.37877V13.2889C16.8652 13.866 16.3974 14.3338 15.8203 14.3338H13.383C13.1994 14.3338 13.0295 14.4311 12.9366 14.5895L11.204 17.5426L11.1997 17.5496C11.1795 17.5818 11.1524 17.6093 11.1205 17.6301L11.1141 17.6341L11.1094 17.6369L11.1043 17.6398C10.9829 17.7071 10.8298 17.6685 10.7549 17.552L10.7519 17.5472L10.7484 17.5414L9.01653 14.5895C8.92361 14.4311 8.75374 14.3338 8.57012 14.3338H4.17969C3.60259 14.3338 3.13477 13.866 3.13477 13.2889V5.37877C3.13477 4.80167 3.60259 4.33385 4.17969 4.33385ZM6.24023 10.1151C6.67171 10.1151 7.02148 9.76532 7.02148 9.33385C7.02148 8.90237 6.67171 8.5526 6.24023 8.5526C5.80876 8.5526 5.45898 8.90237 5.45898 9.33385C5.45898 9.76532 5.80876 10.1151 6.24023 10.1151ZM10.791 9.33385C10.791 9.76532 10.4412 10.1151 10.0098 10.1151C9.57829 10.1151 9.22852 9.76532 9.22852 9.33385C9.22852 8.90237 9.57829 8.5526 10.0098 8.5526C10.4412 8.5526 10.791 8.90237 10.791 9.33385ZM13.7793 10.1151C14.2108 10.1151 14.5605 9.76532 14.5605 9.33385C14.5605 8.90237 14.2108 8.5526 13.7793 8.5526C13.3478 8.5526 12.998 8.90237 12.998 9.33385C12.998 9.76532 13.3478 10.1151 13.7793 10.1151Z" fill="#FFF"/>
</svg>
