<svg width="19" height="18" viewBox="0 0 19 18" fill="none" xmlns="http://www.w3.org/2000/svg">
<path d="M4.55545 4.35938H10.6546V9.92813H4.55545V4.35938Z" fill="#CAE8FF"/>
<path d="M11.8479 10.9887C11.8479 11.0617 11.7882 11.1213 11.7153 11.1213H9.85902V12.3312H15.4278V6.76245H11.8479V10.9887Z" fill="#CAE8FF"/>
<path d="M16.0907 5.56932H11.8479V3.6965C11.8479 3.40314 11.6109 3.16614 11.3175 3.16614H4.55546V2.50319C4.55546 2.43027 4.49579 2.37061 4.42287 2.37061H3.49474C3.42182 2.37061 3.36215 2.43027 3.36215 2.50319V15.4969C3.36215 15.5699 3.42182 15.6295 3.49474 15.6295H4.42287C4.49579 15.6295 4.55546 15.5699 4.55546 15.4969V11.1215H8.66572V12.9943C8.66572 13.2877 8.90273 13.5247 9.19608 13.5247H16.0907C16.3841 13.5247 16.6211 13.2877 16.6211 12.9943V6.09968C16.6211 5.80633 16.3841 5.56932 16.0907 5.56932ZM4.55546 9.9282V4.35944H10.6546V9.9282H4.55546ZM15.4278 12.3314H9.85903V11.1215H11.7153C11.7882 11.1215 11.8479 11.0618 11.8479 10.9889V6.76263H15.4278V12.3314Z" fill="#2B9DF8"/>
</svg>
