<svg width="19" height="18" viewBox="0 0 19 18" fill="none" xmlns="http://www.w3.org/2000/svg">
<path d="M6.03061 15.8267L6.03061 8.73313L6.03558 8.73313L6.03061 15.8267ZM15.103 8.78451L14.7401 9.09941L14.9721 9.52204C15.048 9.66071 15.0873 9.81642 15.0865 9.9745C15.0865 10.248 14.9688 10.5082 14.7616 10.6872L14.3986 11.0021L14.629 11.423C14.7049 11.5617 14.7443 11.7174 14.7434 11.8755C14.7434 12.149 14.6257 12.4092 14.4185 12.5882L14.0556 12.9031L14.2859 13.324C14.3618 13.4627 14.4012 13.6184 14.4003 13.7765C14.4003 14.1477 14.1815 14.4825 13.8434 14.635L7.22391 14.635L7.22391 8.91379C7.53218 7.80004 7.99293 6.12941 8.60781 3.90025C8.65077 3.74736 8.74217 3.61253 8.86828 3.516C8.99439 3.41948 9.14841 3.36646 9.30722 3.36492C9.43152 3.36327 9.55582 3.40139 9.65692 3.47597C9.821 3.59861 9.90884 3.78424 9.8989 3.98147L9.73979 7.26968L14.9506 7.26968C15.2456 7.45033 15.4279 7.75529 15.4279 8.07184C15.4279 8.34531 15.3102 8.60552 15.103 8.78451Z" fill="#FED2DC"/>
<path d="M3.36224 15.298L3.36224 9.2652C3.36224 8.97185 3.59925 8.73484 3.8926 8.73484L4.96989 8.73484L4.96989 15.8284L3.8926 15.8284C3.59925 15.8284 3.36224 15.5914 3.36224 15.298ZM16.1886 9.35967C16.2483 9.55855 16.2781 9.76407 16.2781 9.97289C16.2781 10.4419 16.124 10.8927 15.8455 11.2607C15.9052 11.4596 15.935 11.6651 15.935 11.8739C15.935 12.3429 15.7809 12.7937 15.5024 13.1617C15.5621 13.3606 15.5919 13.5661 15.5919 13.7749C15.5919 14.6301 15.0831 15.4008 14.2942 15.7372C14.1556 15.797 14.006 15.8275 13.855 15.8267L6.0306 15.8267L6.03557 8.73319L7.45759 3.58209C7.68631 2.75175 8.4487 2.17167 9.31053 2.17167C9.80277 2.17167 10.2619 2.36724 10.6016 2.72523C10.9414 3.08157 11.1154 3.54894 11.0905 4.04118L10.9911 6.07808L14.9671 6.07808C15.1677 6.07808 15.3632 6.13112 15.5356 6.23222C16.2052 6.6217 16.6212 7.32774 16.6212 8.07189C16.6212 8.54093 16.467 8.99173 16.1886 9.35967ZM14.9505 7.26973L9.73979 7.26973L9.89889 3.98152C9.90884 3.78429 9.821 3.59866 9.65692 3.47602C9.55582 3.40144 9.43152 3.36332 9.30721 3.36498C9.14841 3.36652 8.99439 3.41953 8.86828 3.51606C8.74216 3.61258 8.65077 3.74741 8.60781 3.90031C7.99292 6.12781 7.53218 7.79843 7.22391 8.91384L7.22391 14.6351L13.8434 14.6351C14.0091 14.5608 14.1498 14.4403 14.2486 14.288C14.3474 14.1357 14.4001 13.9581 14.4003 13.7765C14.4003 13.6158 14.3622 13.4633 14.2859 13.3241L14.0556 12.9031L14.4185 12.5882C14.5207 12.4997 14.6026 12.3903 14.6586 12.2673C14.7147 12.1443 14.7436 12.0107 14.7434 11.8756C14.7434 11.7148 14.7053 11.5623 14.629 11.4231L14.3986 11.0021L14.7616 10.6872C14.8638 10.5987 14.9457 10.4893 15.0017 10.3663C15.0578 10.2433 15.0867 10.1097 15.0865 9.97455C15.0865 9.81379 15.0483 9.66131 14.9721 9.52209L14.7401 9.09946L15.103 8.78456C15.2052 8.69608 15.2871 8.58662 15.3431 8.46364C15.3992 8.34066 15.4281 8.20705 15.4279 8.0719C15.4279 7.75534 15.2456 7.45038 14.9505 7.26973Z" fill="#FA1E50"/>
</svg>
