<svg width="172" height="172" viewBox="0 0 172 172" fill="none" xmlns="http://www.w3.org/2000/svg">
<path d="M77.6709 115.819L92.1543 73.0137L146.093 96.1084L135.115 123.076" fill="#E9F0FF"/>
<path d="M124.012 105.647C123.945 105.647 123.887 105.638 123.82 105.609C122.985 105.235 122.572 105.024 122.168 104.813C121.765 104.602 121.381 104.401 120.564 104.046C119.729 103.672 119.325 103.471 118.912 103.279C118.509 103.088 118.115 102.886 117.299 102.522C116.444 102.139 116.041 101.889 115.647 101.65C115.263 101.41 114.907 101.189 114.11 100.835C113.342 100.49 112.929 100.422 112.487 100.346C112.007 100.269 111.507 100.183 110.633 99.7897C109.75 99.3967 109.356 99.0611 108.981 98.7352C108.645 98.438 108.328 98.16 107.57 97.8244C106.811 97.4889 106.398 97.441 105.946 97.393C105.447 97.3355 104.928 97.2876 104.045 96.8849C103.18 96.5015 102.777 96.2138 102.393 95.9358C102.028 95.677 101.682 95.4277 100.904 95.0826C100.664 94.9771 100.558 94.6991 100.664 94.4595C100.77 94.2198 101.048 94.1143 101.288 94.2198C102.153 94.6033 102.556 94.8909 102.94 95.1689C103.305 95.4277 103.651 95.677 104.429 96.0221C105.188 96.3577 105.601 96.4056 106.052 96.4535C106.551 96.511 107.07 96.559 107.954 96.9616C108.837 97.3547 109.231 97.6902 109.606 98.0162C109.942 98.3134 110.259 98.5914 111.018 98.9269C111.786 99.2721 112.199 99.3392 112.641 99.4063C113.121 99.483 113.62 99.5693 114.494 99.9623C115.349 100.346 115.752 100.595 116.146 100.835C116.53 101.074 116.886 101.295 117.683 101.65C118.509 102.023 118.922 102.215 119.325 102.417C119.729 102.618 120.132 102.81 120.948 103.174C121.784 103.548 122.197 103.759 122.6 103.97C123.004 104.181 123.388 104.382 124.204 104.737C124.444 104.842 124.55 105.12 124.444 105.36C124.368 105.532 124.195 105.638 124.012 105.638V105.647Z" fill="#A7C3FF"/>
<path d="M119.537 114.055C119.469 114.055 119.412 114.045 119.344 114.017C118.566 113.672 118.154 113.585 117.712 113.489C117.241 113.394 116.761 113.288 115.887 112.895C115.061 112.531 114.648 112.349 114.245 112.166C113.832 111.984 113.419 111.802 112.593 111.438C111.728 111.054 111.325 110.757 110.941 110.479C110.576 110.211 110.239 109.961 109.462 109.616C108.684 109.271 108.271 109.166 107.829 109.06C107.368 108.955 106.897 108.84 106.033 108.456C105.188 108.082 104.775 107.843 104.381 107.613C103.987 107.383 103.622 107.172 102.825 106.817C101.97 106.433 101.567 106.175 101.173 105.916C100.798 105.676 100.443 105.436 99.6554 105.091C98.8582 104.737 98.4453 104.593 98.0227 104.449C97.5905 104.305 97.1487 104.152 96.3035 103.778C96.0634 103.672 95.9577 103.394 96.0634 103.155C96.169 102.915 96.4475 102.81 96.6877 102.915C97.4944 103.27 97.8978 103.414 98.33 103.557C98.7622 103.701 99.204 103.855 100.049 104.228C100.904 104.612 101.307 104.871 101.701 105.13C102.076 105.369 102.431 105.609 103.228 105.954C104.073 106.328 104.477 106.568 104.88 106.798C105.274 107.028 105.639 107.239 106.436 107.593C107.224 107.939 107.627 108.044 108.069 108.15C108.53 108.255 109.001 108.37 109.865 108.753C110.729 109.137 111.133 109.434 111.517 109.712C111.882 109.981 112.218 110.23 112.996 110.575C113.822 110.939 114.235 111.121 114.638 111.304C115.051 111.486 115.464 111.668 116.29 112.032C117.068 112.377 117.481 112.464 117.923 112.559C118.394 112.655 118.874 112.761 119.738 113.144C119.978 113.25 120.084 113.528 119.978 113.767C119.902 113.94 119.729 114.045 119.546 114.045L119.537 114.055Z" fill="#A7C3FF"/>
<g opacity="0.19">
<path d="M135.115 108.907L134.913 109.3L135.115 108.907Z" fill="#BDD2FF"/>
</g>
<path d="M57.0591 61.0663L24.5066 69.2823C23.8021 69.4601 23.3754 70.1743 23.5535 70.8776L28.2482 89.4105C28.4263 90.1137 29.1419 90.5397 29.8464 90.3618L62.3989 82.1459C63.1034 81.9681 63.5302 81.2538 63.352 80.5506L58.6573 62.0177C58.4792 61.3144 57.7636 60.8885 57.0591 61.0663Z" fill="#BDD2FF"/>
<path d="M59.0288 72.1031L28.8134 79.8205L22.4937 55.0769L52.7187 47.3499L59.0288 72.1031Z" fill="#E9F0FF"/>
<path d="M25.9609 68.9108L44.1613 75.4203L56.3397 60.9058L59.7492 73.0619L37.0828 80.8848L28.6214 80.1945L25.9609 68.9108Z" fill="#BDD2FF"/>
<path d="M31.8292 58.8733C31.6275 58.8733 31.4546 58.7391 31.397 58.5378C31.3393 58.2981 31.4834 58.0584 31.7235 58.0009C32.0885 57.9146 32.271 57.8667 32.4534 57.8284C32.6359 57.79 32.8088 57.7517 33.1642 57.6654C33.5099 57.5791 33.6732 57.5216 33.8461 57.4641C34.0286 57.4065 34.2206 57.3394 34.5952 57.2531C35.0274 57.1477 35.2675 57.1669 35.4788 57.1765C35.6613 57.186 35.7958 57.1956 36.0935 57.1285C36.372 57.0614 36.4777 56.9847 36.6217 56.8697C36.7946 56.7355 37.0155 56.5725 37.4669 56.467C37.8415 56.3712 38.0336 56.3424 38.2257 56.3041C38.3986 56.2753 38.581 56.2465 38.9268 56.1602C39.2726 56.074 39.4454 56.026 39.6183 55.9685C39.8008 55.911 39.9833 55.8535 40.3675 55.7576C40.7612 55.6617 40.9533 55.6426 41.155 55.6138C41.3279 55.5946 41.5008 55.5755 41.8369 55.4892C42.1731 55.4029 42.3268 55.3454 42.49 55.2783C42.6725 55.2016 42.8646 55.1249 43.2584 55.029C43.6522 54.9331 43.8731 54.914 44.0652 54.8948C44.238 54.8756 44.4109 54.866 44.7375 54.7797C44.9776 54.7222 45.2177 54.866 45.2753 55.1057C45.3329 55.3454 45.1889 55.585 44.9488 55.6426C44.555 55.7384 44.3341 55.7576 44.1516 55.7768C43.9787 55.7959 43.8058 55.8055 43.4793 55.8918C43.1431 55.9781 42.9895 56.0356 42.8262 56.1027C42.6437 56.1794 42.4516 56.2561 42.0578 56.352C41.6737 56.4479 41.472 56.467 41.2703 56.4958C41.0974 56.515 40.9245 56.5341 40.5884 56.6204C40.2426 56.7067 40.0697 56.7642 39.8969 56.8122C39.7144 56.8697 39.5319 56.9272 39.1573 57.0135C38.7827 57.1093 38.5907 57.1381 38.3986 57.1765C38.2257 57.2052 38.0432 57.234 37.6974 57.3203C37.4189 57.3874 37.3133 57.4641 37.1692 57.5791C36.9963 57.7133 36.7754 57.8763 36.324 57.9818C35.8918 58.0872 35.6517 58.068 35.4404 58.0584C35.2579 58.0489 35.1235 58.0393 34.8257 58.1064C34.48 58.1927 34.3167 58.2502 34.1438 58.2981C33.9613 58.3556 33.7692 58.4227 33.3947 58.509C33.0297 58.5953 32.8472 58.6432 32.6647 58.6816C32.4823 58.7199 32.3094 58.7583 31.954 58.8446C31.9156 58.8446 31.8868 58.8542 31.8484 58.8542L31.8292 58.8733Z" fill="#A7C3FF"/>
<path d="M34.1148 64.4145C33.9131 64.4145 33.7402 64.2803 33.6826 64.0789C33.625 63.8393 33.769 63.5996 34.0091 63.5421L35.4498 63.1874C35.7764 63.1107 35.9204 63.0436 36.0933 62.9765C36.2758 62.8998 36.4775 62.8135 36.8713 62.7176C37.2842 62.6122 37.5051 62.6122 37.7068 62.6122C37.8797 62.6122 38.0334 62.6122 38.3503 62.5259C38.6961 62.4396 38.8594 62.3821 39.0323 62.3246C39.2147 62.2574 39.4068 62.1999 39.7814 62.1041C40.0983 62.0274 40.2424 61.9603 40.4057 61.8836C40.5882 61.7973 40.7899 61.711 41.1932 61.6151C41.6254 61.5097 41.8848 61.5288 42.0961 61.548C42.2689 61.5672 42.413 61.5768 42.7011 61.5097C42.9989 61.433 43.1237 61.3659 43.287 61.27C43.4695 61.1645 43.6808 61.0495 44.1034 60.944C44.4491 60.8578 44.622 60.8002 44.7853 60.7427C44.9678 60.6852 45.1599 60.6181 45.5344 60.5222C45.9666 60.4168 46.2067 60.4359 46.4276 60.4551C46.6101 60.4743 46.7446 60.4743 47.0423 60.4072C47.2824 60.3497 47.5225 60.4935 47.5802 60.7331C47.6378 60.9728 47.4937 61.2125 47.2536 61.27C46.8214 61.3755 46.5813 61.3563 46.3604 61.3371C46.1779 61.3275 46.0435 61.3179 45.7457 61.385C45.4 61.4713 45.2271 61.5288 45.0638 61.5864C44.8813 61.6439 44.6892 61.711 44.3147 61.8069C44.0169 61.8836 43.8921 61.9507 43.7288 62.0369C43.5463 62.1424 43.335 62.2574 42.9124 62.3629C42.4802 62.4684 42.2209 62.4492 42.0096 62.43C41.8367 62.4108 41.6927 62.4013 41.4045 62.4684C41.0876 62.5451 40.9435 62.6122 40.7803 62.6889C40.5978 62.7751 40.3961 62.8614 39.9927 62.9573C39.6469 63.0436 39.4837 63.1011 39.3204 63.1586C39.1379 63.2257 38.9458 63.2832 38.5712 63.3791C38.1582 63.4846 37.9373 63.4846 37.7357 63.4846C37.5628 63.4846 37.4091 63.4846 37.0922 63.5613C36.7656 63.638 36.6215 63.7051 36.4583 63.7722C36.2758 63.8489 36.0741 63.9351 35.6803 64.031L34.2397 64.3857C34.2397 64.3857 34.1724 64.3953 34.134 64.3953L34.1148 64.4145Z" fill="#A7C3FF"/>
<path d="M35.0464 70.5309C34.8447 70.5309 34.6719 70.3967 34.6142 70.1953C34.5566 69.9557 34.7007 69.716 34.9408 69.6585C35.3346 69.5626 35.5459 69.5434 35.738 69.5243C35.9108 69.5051 36.0741 69.4955 36.4103 69.4092C36.6984 69.3421 36.8136 69.2654 36.9673 69.1695C37.1402 69.0545 37.3611 68.9203 37.7933 68.8148C38.2159 68.7094 38.456 68.719 38.6673 68.7286C38.8498 68.7381 38.9938 68.7381 39.2916 68.671C39.6277 68.5847 39.791 68.5272 39.9543 68.4697C40.1464 68.4026 40.3289 68.3259 40.713 68.2396C41.0684 68.1533 41.2413 68.1054 41.4142 68.0575C41.5966 68.0095 41.7791 67.952 42.1441 67.8657C42.5475 67.7699 42.7684 67.7507 42.9605 67.7411C43.143 67.7411 43.2966 67.7219 43.6136 67.6452C43.9113 67.5685 44.0362 67.5014 44.1898 67.4056C44.3723 67.3001 44.5836 67.1755 45.0062 67.07C45.4384 66.9646 45.6785 66.9837 45.8898 66.9933C46.0723 67.0029 46.2164 67.0125 46.5045 66.9454C46.8406 66.8591 46.9943 66.8016 47.1576 66.7345C47.3401 66.6578 47.5322 66.5811 47.9259 66.4852C48.1661 66.4373 48.4062 66.5715 48.4638 66.8112C48.5214 67.0509 48.3773 67.2905 48.1372 67.348C47.8011 67.4247 47.6474 67.4918 47.4841 67.559C47.3017 67.6357 47.1096 67.7123 46.7158 67.8082C46.2836 67.9137 46.0435 67.8945 45.8322 67.8849C45.6497 67.8753 45.5056 67.8657 45.2175 67.9328C44.9198 68.0095 44.7949 68.0766 44.6412 68.1725C44.4588 68.278 44.2475 68.4026 43.8249 68.5081C43.4215 68.6039 43.2006 68.6231 43.0085 68.6327C42.826 68.6423 42.6723 68.6519 42.3458 68.7286C41.9904 68.8148 41.8175 68.8628 41.6351 68.9107C41.4526 68.9586 41.2701 69.0162 40.9051 69.1024C40.569 69.1887 40.4057 69.2462 40.2424 69.3038C40.0599 69.3709 39.8678 69.4476 39.4837 69.5338C39.0611 69.6393 38.821 69.6297 38.6097 69.6201C38.4272 69.6201 38.2831 69.6105 37.9854 69.6777C37.6973 69.7448 37.582 69.8215 37.4283 69.9173C37.2554 70.0324 37.0345 70.1666 36.6023 70.272C36.2086 70.3679 35.9973 70.3871 35.8052 70.4063C35.6323 70.4254 35.469 70.435 35.1329 70.5213C35.0945 70.5213 35.0656 70.5309 35.0272 70.5309H35.0464Z" fill="#A7C3FF"/>
<path d="M49.4629 54.9619L50.068 54.9236L50.0776 55.2016L49.4629 54.9619Z" fill="#BDD2FF"/>
<path opacity="0.3" d="M54.0347 73.2727L27.2192 85.0741L27.8531 88.1803L54.1692 74.9887L54.0347 73.2727Z" fill="#1F5EE5"/>
<path d="M29.7354 115.79L17 93.3857L54.2939 73.6943L86.7472 131.618" fill="#E9F0FF"/>
<path d="M33.2986 98.9366C33.1161 98.9366 32.9432 98.8408 32.8568 98.6682C32.7319 98.4189 32.828 98.1217 33.0777 97.9971C33.6155 97.7191 33.8557 97.5465 34.1054 97.3548C34.3839 97.1439 34.6624 96.933 35.2771 96.6166C35.8822 96.3098 36.2183 96.1948 36.5353 96.0797C36.833 95.9743 37.1212 95.8784 37.659 95.6004C38.168 95.3415 38.3697 95.1498 38.6002 94.9197C38.8499 94.6705 39.1381 94.3924 39.7816 94.0665C40.3674 93.7693 40.6652 93.6255 40.9629 93.4913C41.2511 93.3571 41.5392 93.2229 42.1058 92.9352L44.4109 91.7561C44.968 91.478 45.2177 91.3055 45.4866 91.1329C45.7651 90.9508 46.0533 90.759 46.6583 90.4523C47.2634 90.1455 47.5996 90.0304 47.9261 89.9154C48.2239 89.8099 48.512 89.7141 49.0594 89.436C49.3091 89.3114 49.6069 89.4073 49.7317 89.6565C49.8566 89.9058 49.7606 90.203 49.5108 90.3276C48.9058 90.6344 48.5696 90.7494 48.2431 90.8645C47.9453 90.9699 47.6572 91.0658 47.1097 91.3438C46.5623 91.6219 46.303 91.7944 46.034 91.967C45.7555 92.1491 45.4674 92.3409 44.8623 92.6476L42.5573 93.8268C41.9714 94.124 41.6736 94.2582 41.3759 94.402C41.0878 94.5363 40.7996 94.6705 40.2234 94.9581C39.7143 95.2169 39.5127 95.4087 39.2821 95.6387C39.0324 95.888 38.7443 96.166 38.1008 96.492C37.4957 96.7987 37.1596 96.9138 36.8426 97.0192C36.5449 97.1247 36.2568 97.2206 35.7093 97.4986C35.1715 97.7766 34.9314 97.9492 34.6816 98.1409C34.4031 98.3518 34.1246 98.5627 33.5099 98.8791C33.4331 98.9174 33.3562 98.9366 33.2794 98.9366H33.2986Z" fill="#A7C3FF"/>
<path d="M38.8211 106.712C38.6386 106.712 38.4657 106.616 38.3793 106.443C38.2544 106.194 38.3504 105.897 38.6002 105.772C39.0996 105.513 39.2917 105.312 39.5126 105.082C39.7623 104.823 40.0408 104.516 40.6939 104.19C41.299 103.883 41.6255 103.768 41.9425 103.653C42.2402 103.548 42.5284 103.452 43.0758 103.164C43.6809 102.858 44.0074 102.743 44.3244 102.628C44.6221 102.522 44.9103 102.417 45.4577 102.139C46.0052 101.861 46.2453 101.688 46.5046 101.506C46.7831 101.305 47.0712 101.103 47.6763 100.796C48.3006 100.48 48.6464 100.384 48.9825 100.288C49.2899 100.202 49.5684 100.125 50.1062 99.857C50.6729 99.5694 50.9514 99.4064 51.23 99.253C51.5181 99.09 51.8062 98.927 52.3921 98.6203C52.9299 98.3422 53.17 98.1697 53.4198 97.9779C53.6983 97.767 53.9768 97.5561 54.6011 97.2398C54.8508 97.1151 55.1486 97.211 55.2734 97.4603C55.3983 97.7095 55.3022 98.0067 55.0525 98.1313C54.5147 98.4094 54.2746 98.5819 54.0248 98.7737C53.7463 98.9846 53.4678 99.1955 52.8531 99.5118C52.2864 99.7994 52.0079 99.9624 51.7294 100.116C51.4413 100.279 51.1531 100.442 50.5673 100.749C49.943 101.065 49.5972 101.161 49.2611 101.257C48.9537 101.343 48.6752 101.42 48.1373 101.688C47.5899 101.966 47.3498 102.139 47.0905 102.321C46.8119 102.522 46.5238 102.723 45.9187 103.03C45.3136 103.337 44.9871 103.452 44.6701 103.567C44.3724 103.673 44.0843 103.778 43.5368 104.056C42.9317 104.363 42.6052 104.478 42.2883 104.593C41.9905 104.698 41.7024 104.794 41.1549 105.072C40.6555 105.331 40.4634 105.532 40.2425 105.762C39.9928 106.021 39.7143 106.319 39.0612 106.654C38.9843 106.692 38.9075 106.712 38.8307 106.712H38.8211Z" fill="#A7C3FF"/>
<g opacity="0.19">
<path d="M56.5127 85.6108L56.6376 85.8984L56.5127 85.6108Z" fill="#BDD2FF"/>
</g>
<path opacity="0.13" d="M116.761 128.723C124.761 106.989 119.2 99.1187 119.2 99.1187L115.945 100.509C115.945 100.509 113.563 109.118 112.497 110.958C111.431 112.799 111.421 121.446 111.421 121.446C111.421 121.446 112.055 122.098 112.967 122.808" fill="#45484C"/>
<path d="M115.983 122.597C117.981 117.276 118.384 113.24 118.384 113.24C121.64 93.2517 111.334 68.4122 111.334 68.4122L108.674 63.4845C106.926 59.5251 98.2243 41.3868 98.2243 41.3868L98.1571 41.2143C97.8978 40.5528 97.5808 39.92 97.2159 39.3161L96.0345 36.6797C95.9001 36.4496 95.8616 36.1812 95.9193 35.9319C96.313 34.283 97.4656 27.8598 92.0775 27.3229C86.7471 26.7956 87.4578 33.6406 87.4578 33.6406L83.4912 34.2254C83.6544 32.241 83.6064 30.3044 82.8189 30.2852C81.1957 30.2565 78.9291 32.912 78.9291 32.912C78.9291 32.912 78.5737 26.8627 77.037 26.1245C74.7416 25.0221 72.8879 32.634 69.8145 36.6797L65.7614 37.1974C65.7614 37.1974 62.8321 29.0198 56.7045 32.4135C49.895 36.1812 56.9254 44.1574 56.9254 44.1574L56.6372 47.7333C56.5412 48.251 56.4644 48.7975 56.4163 49.3727C56.4163 49.3727 55.5808 60.6564 53.9672 66.6769C53.9672 66.6769 52.7283 73.752 52.1136 75.9091C49.6452 84.6619 43.1142 97.3069 41.6064 102.982C38.6386 114.103 39.5702 121.84 43.0182 127.419C43.0182 127.419 44.0939 128.953 44.7662 129.202L87.9092 147.35L110.307 128.713C110.307 128.713 114.744 125.857 115.964 122.626L115.983 122.597Z" fill="#D4DEEB"/>
<path d="M93.4511 29.6719C92.8268 29.2309 91.9336 29.4801 91.6551 30.1896C91.5014 30.5826 91.4342 31.0524 91.607 31.5605C91.7799 32.0686 92.1641 32.4904 92.5771 32.8068C93.4319 33.4491 94.6324 32.7876 94.5172 31.7235C94.4692 31.2537 94.3443 30.7744 94.0946 30.343C93.9313 30.0649 93.7008 29.8444 93.4511 29.6719Z" fill="#FF004B"/>
<path d="M93.4028 33.1614C93.0859 33.1806 92.7786 33.0943 92.5096 32.8834C92.0102 32.4999 91.674 32.0685 91.5012 31.5796C91.3379 31.1194 91.3571 30.6305 91.5588 30.132C91.7029 29.7677 92.0006 29.4993 92.3848 29.3842C92.7786 29.2692 93.1915 29.3363 93.5277 29.5664C93.8158 29.7677 94.0367 30.0074 94.2 30.2662C94.4401 30.6593 94.5842 31.1386 94.6418 31.6946C94.6994 32.2315 94.4401 32.7204 93.9791 32.9793C93.7966 33.0847 93.6045 33.1327 93.4124 33.1518L93.4028 33.1614ZM92.6921 29.5664C92.6057 29.5664 92.5288 29.5855 92.4424 29.6143C92.1255 29.7102 91.8853 29.9307 91.7605 30.2279C91.5876 30.6784 91.5684 31.1098 91.7125 31.5221C91.8661 31.9631 92.1735 32.3657 92.6441 32.7109C92.9995 32.9793 93.4701 33.0176 93.8542 32.7971C94.2384 32.5766 94.4497 32.174 94.4017 31.733C94.3441 31.2153 94.2096 30.7647 93.9887 30.4004C93.8446 30.1607 93.643 29.9498 93.3836 29.7677C93.1819 29.6239 92.9322 29.5568 92.6825 29.5664H92.6921Z" fill="#FF004B"/>
<path d="M56.3685 35.7691C56.8679 34.9062 58.0396 34.6857 58.7888 35.3472C59.2402 35.7403 59.6532 36.3059 59.7396 37.0633C59.8453 37.9069 59.5667 38.7218 59.173 39.4025C58.5199 40.5529 56.8199 40.457 56.3205 39.2395C56.0515 38.578 55.869 37.8206 55.9267 37.0537C55.9651 36.5743 56.138 36.1334 56.3589 35.7691H56.3685Z" fill="#FF004B"/>
<path d="M57.9052 40.3227C57.8284 40.3227 57.7515 40.3227 57.6747 40.3227C57.0216 40.2844 56.4646 39.8817 56.2148 39.2777C55.8883 38.482 55.7538 37.7343 55.8211 37.044C55.8595 36.603 56.0035 36.1524 56.2629 35.7114C56.5222 35.2608 56.964 34.9541 57.4826 34.8678C57.982 34.7815 58.4815 34.9253 58.856 35.2608C59.4323 35.769 59.7685 36.3633 59.8453 37.0536C59.9413 37.811 59.7396 38.6258 59.269 39.4599C58.9809 39.968 58.4719 40.2844 57.8956 40.3227H57.9052ZM56.4549 35.8169C56.2148 36.2387 56.0708 36.6509 56.042 37.0536C55.9843 37.7151 56.1188 38.4341 56.4261 39.1915C56.647 39.7187 57.1176 40.0639 57.6939 40.1022C58.2702 40.1406 58.808 39.853 59.0866 39.3448C59.538 38.5491 59.7204 37.7822 59.634 37.0728C59.5572 36.44 59.2498 35.884 58.712 35.4238C58.3854 35.1362 57.9532 35.0116 57.521 35.0883C57.0696 35.165 56.6855 35.4334 56.4549 35.8265V35.8169Z" fill="#FF004B"/>
<path d="M108.972 64.0405C108.972 64.0405 99.8571 75.238 93.4606 76.8773C79.0828 80.5683 54.2362 65.3156 54.2362 65.3156L53.1797 70.9431C53.1797 70.9431 70.045 101.918 96.5052 94.0857C107.915 90.7111 112.506 76.3213 112.65 73.5411C112.689 72.8029 112.708 71.5758 112.362 70.9239L108.981 64.0405H108.972Z" fill="#FF004B"/>
<path d="M111.334 89.8101C112.439 89.8101 113.102 90.4524 113.14 91.5549C112.026 91.5549 111.373 90.9125 111.334 89.8101Z" fill="#AFB7C1"/>
<path d="M82.8959 49.5929C76.4226 51.5966 74.8282 56.4571 75.0107 59.8317V61.5573C75.635 65.7756 77.9401 69.1693 82.2044 68.5557L88.8603 67.5971C93.1246 66.9835 96.1116 63.0241 95.5065 58.8059V58.8826C94.9111 54.6644 91.1653 48.3946 82.8959 49.5834V49.5929Z" fill="white"/>
<path d="M81.8296 52.8239C81.9833 52.0474 82.5883 51.453 83.3663 51.3188L86.9103 50.7148C87.6979 50.5806 88.4662 50.9353 88.86 51.6256C89.2538 52.3062 89.1866 53.1499 88.6871 53.7634L87.1793 55.6041C86.8623 55.9876 86.4109 56.2177 85.9403 56.2752C85.5273 56.3231 85.1047 56.2464 84.7301 56.0163L82.694 54.7796C82.0121 54.3674 81.6759 53.6005 81.82 52.8239H81.8296Z" fill="#262626"/>
<path opacity="0.13" d="M114.254 69.5433C113.889 65.1237 107.714 64.7882 105.86 60.7138C104.112 56.8695 101.116 53.399 98.1478 50.2354C91.1461 56.7928 88.8123 66.3317 92.2026 76.1199C94.1619 81.7569 96.1308 87.394 98.0709 93.0311C99.1178 96.0605 98.0901 98.3805 95.1704 99.6556C93.5376 100.365 92.4812 101.554 92.1546 103.308C91.4727 107.009 94.9495 109.846 98.676 108.581C102.499 107.277 113.851 102.33 117.664 101.007C117.145 90.9411 115.09 79.5999 114.254 69.5337V69.5433Z" fill="#45484C"/>
<path d="M86.2476 58.2212C85.8635 58.25 85.5177 57.972 85.4505 57.5885L85.22 56.1313C85.1527 55.7191 85.4313 55.3356 85.8443 55.2685C86.2572 55.211 86.6414 55.4794 86.7087 55.8916L86.9392 57.3488C87.0064 57.7611 86.7279 58.1445 86.3149 58.2116C86.2957 58.2116 86.2668 58.2116 86.2476 58.2116V58.2212Z" fill="#262626"/>
<path d="M119.489 148.405L122.601 120.651L86.7378 113.892L81.4458 137.687L111.296 148.165L119.489 148.405Z" fill="#E9F0FF"/>
<path d="M93.2497 122.837C92.9712 122.741 92.8079 122.453 92.8655 122.156C92.9328 121.83 93.2497 121.619 93.5763 121.686C93.9796 121.763 94.1621 121.744 94.4118 121.705C94.6904 121.667 95.0457 121.619 95.6412 121.734C96.179 121.84 96.448 121.936 96.7073 122.022C96.9378 122.099 97.1491 122.175 97.6101 122.262C98.1287 122.367 98.3785 122.434 98.6378 122.501C98.8779 122.559 99.1084 122.626 99.5886 122.722C100.05 122.818 100.29 122.827 100.52 122.846C100.789 122.865 101.068 122.885 101.596 122.99C102.057 123.086 102.297 123.105 102.537 123.124C102.806 123.143 103.085 123.172 103.613 123.278C104.18 123.393 104.468 123.517 104.717 123.632C104.938 123.728 105.13 123.815 105.563 123.901C106.091 124.006 106.35 124.083 106.609 124.16C106.84 124.227 107.07 124.304 107.541 124.39C107.992 124.476 108.204 124.486 108.453 124.495C108.722 124.495 109.02 124.514 109.568 124.62C110.134 124.735 110.422 124.86 110.672 124.975C110.893 125.08 111.085 125.166 111.517 125.243C111.844 125.31 112.055 125.626 111.988 125.952C111.921 126.278 111.604 126.489 111.277 126.422C110.711 126.307 110.422 126.183 110.173 126.067C109.952 125.972 109.76 125.885 109.327 125.799C108.876 125.713 108.665 125.703 108.415 125.694C108.146 125.694 107.848 125.674 107.301 125.569C106.773 125.464 106.513 125.387 106.254 125.31C106.024 125.243 105.793 125.166 105.322 125.08C104.756 124.965 104.468 124.84 104.218 124.725C103.997 124.629 103.805 124.543 103.373 124.457C102.912 124.361 102.672 124.342 102.432 124.323C102.163 124.304 101.884 124.275 101.356 124.169C100.895 124.073 100.655 124.064 100.424 124.045C100.155 124.025 99.8767 124.006 99.3485 123.901C98.8395 123.795 98.5801 123.728 98.3304 123.661C98.0903 123.604 97.8598 123.537 97.37 123.441C96.8321 123.335 96.5632 123.239 96.3039 123.153C96.0734 123.076 95.8621 123 95.4011 122.913C94.9977 122.837 94.8152 122.856 94.5655 122.894C94.287 122.933 93.9316 122.981 93.3361 122.865C93.3073 122.865 93.2785 122.856 93.2497 122.837Z" fill="#A7C3FF"/>
<path d="M91.3674 129.212C91.0889 129.116 90.9256 128.828 90.9832 128.531C91.0504 128.205 91.3674 127.994 91.6939 128.062C92.0973 128.138 92.2798 128.119 92.5295 128.081C92.808 128.042 93.1634 127.994 93.7589 128.109C94.2967 128.215 94.5656 128.311 94.825 128.397C95.0555 128.474 95.2668 128.55 95.7278 128.637C96.2464 128.742 96.4961 128.809 96.7555 128.876C96.9956 128.934 97.2261 129.001 97.7063 129.097C98.1673 129.193 98.4074 129.202 98.6379 129.222C98.9068 129.241 99.1854 129.26 99.7136 129.365C100.175 129.461 100.415 129.48 100.655 129.5C100.924 129.519 101.202 129.548 101.731 129.653C102.297 129.768 102.585 129.893 102.835 130.008C103.056 130.104 103.248 130.19 103.68 130.276C104.208 130.382 104.468 130.458 104.727 130.535C104.958 130.602 105.188 130.679 105.659 130.765C106.11 130.851 106.321 130.861 106.571 130.87C106.84 130.87 107.138 130.89 107.685 130.995C108.252 131.11 108.54 131.235 108.79 131.35C109.011 131.455 109.203 131.542 109.635 131.618C109.962 131.685 110.173 132.002 110.106 132.328C110.038 132.654 109.721 132.865 109.395 132.797C108.828 132.682 108.54 132.558 108.29 132.443C108.069 132.347 107.877 132.261 107.445 132.174C106.994 132.088 106.782 132.078 106.533 132.069C106.264 132.069 105.966 132.05 105.419 131.944C104.89 131.839 104.631 131.762 104.372 131.685C104.141 131.618 103.911 131.542 103.44 131.455C102.873 131.34 102.585 131.216 102.336 131.101C102.115 131.005 101.923 130.918 101.49 130.832C101.029 130.736 100.789 130.717 100.549 130.698C100.28 130.679 100.002 130.65 99.4735 130.545C99.0125 130.449 98.7724 130.439 98.5419 130.42C98.2729 130.401 97.9944 130.382 97.4662 130.276C96.9571 130.171 96.6978 130.104 96.4481 130.036C96.208 129.979 95.9775 129.912 95.4877 129.816C94.9498 129.71 94.6809 129.615 94.4216 129.528C94.1911 129.452 93.9798 129.375 93.5188 129.289C93.1154 129.212 92.9329 129.231 92.6832 129.269C92.4047 129.308 92.0493 129.356 91.4538 129.241C91.425 129.241 91.3962 129.231 91.3674 129.212Z" fill="#A7C3FF"/>
<g opacity="0.19">
<path d="M123.897 127.237L123.859 127.438L123.897 127.237Z" fill="#BDD2FF"/>
</g>
<path d="M126.961 30.7166C126.558 30.7837 126.125 30.8316 125.712 30.7358C125.299 30.6687 124.915 30.4673 124.617 30.1701C124.31 29.8825 124.118 29.4991 124.003 29.0964C123.945 28.8663 123.907 28.6171 123.887 28.387C123.887 28.224 123.887 28.061 123.868 27.9077V27.831L123.859 27.8022C123.811 27.5434 123.561 27.3708 123.302 27.4091C123.042 27.4475 122.869 27.7063 122.908 27.9652C122.869 28.3486 122.812 28.6938 122.687 29.0389C122.552 29.3744 122.351 29.7004 122.101 29.9976C121.842 30.2948 121.534 30.5728 121.198 30.8412C121.035 30.9754 120.853 31.1001 120.67 31.2247L120.391 31.4164L120.247 31.5123L120.18 31.5602L120.142 31.5794C120.142 31.5794 120.065 31.6465 120.065 31.6657C120.103 31.6657 120.142 31.6849 120.19 31.704H120.219C120.219 31.704 120.315 31.7424 120.382 31.7616C120.516 31.7999 120.67 31.8191 120.747 31.8574C120.939 31.9245 121.131 31.9917 121.304 32.0875C121.65 32.2697 121.957 32.4902 122.197 32.7778C122.447 33.0558 122.649 33.3722 122.821 33.7077C122.975 34.0432 123.138 34.4171 123.206 34.7335C123.263 35.0211 123.513 35.232 123.82 35.232C124.166 35.232 124.445 34.954 124.445 34.6089V34.5418C124.445 34.2637 124.512 33.9857 124.656 33.6885C124.79 33.3913 125.021 33.1133 125.28 32.8449C125.539 32.5764 125.837 32.3272 126.154 32.0875C126.461 31.8478 126.798 31.6082 127.124 31.4069L127.201 31.3589C127.316 31.2822 127.384 31.148 127.364 31.0042C127.335 30.8125 127.153 30.6783 126.961 30.7166ZM124.512 32.0108C124.204 32.2697 123.907 32.5764 123.667 32.9407C123.426 32.6148 123.138 32.3176 122.812 32.0779C122.418 31.7903 121.957 31.5986 121.486 31.5219C121.41 31.5027 121.333 31.5027 121.265 31.4931C121.352 31.4644 121.429 31.4356 121.515 31.4069C121.957 31.2343 122.38 30.9946 122.754 30.6687C123.1 30.3715 123.388 29.988 123.599 29.5566C123.82 29.8825 124.07 30.1893 124.368 30.4482C124.733 30.7549 125.136 31.0138 125.597 31.1576C125.645 31.1768 125.693 31.1864 125.732 31.2055C125.299 31.426 124.896 31.6849 124.512 32.0204V32.0108Z" fill="#6A7079"/>
<path d="M150.981 50.5807C150.443 50.5136 149.877 50.4178 149.397 50.1493C148.897 49.9097 148.484 49.507 148.215 49.0277C147.937 48.5579 147.831 47.9923 147.831 47.4458C147.831 47.1295 147.889 46.8131 147.946 46.4967C148.014 46.2954 148.062 46.0845 148.1 45.8832L148.119 45.7873V45.7394C148.167 45.3943 147.908 45.0779 147.562 45.0395C147.216 45.0012 146.899 45.2504 146.861 45.5956C146.669 46.0653 146.477 46.4872 146.189 46.8706C145.891 47.2541 145.516 47.5801 145.084 47.8677C144.642 48.1457 144.153 48.3853 143.624 48.5963C143.365 48.7017 143.096 48.7976 142.818 48.8935L142.405 49.0277L142.193 49.0948L142.088 49.1235L142.03 49.1427C142.03 49.1427 141.905 49.2002 141.896 49.229C141.944 49.2482 141.992 49.2865 142.04 49.3153V49.3249H142.078C142.136 49.3728 142.193 49.4207 142.26 49.4687C142.414 49.5645 142.606 49.6412 142.693 49.7275C142.914 49.8809 143.125 50.0439 143.307 50.226C143.682 50.5807 143.98 50.9738 144.191 51.4244C144.402 51.8654 144.546 52.3351 144.642 52.8241C144.719 53.3034 144.786 53.8403 144.748 54.2717C144.719 54.6552 144.959 55.0195 145.334 55.1249C145.776 55.2495 146.227 55.0003 146.362 54.5689L146.381 54.4922C146.486 54.1375 146.669 53.8115 146.967 53.4951C147.245 53.1692 147.649 52.9008 148.071 52.6515C148.494 52.4022 148.964 52.2009 149.454 52.0188C149.934 51.8366 150.443 51.6449 150.933 51.5107L151.049 51.4819C151.221 51.434 151.356 51.2806 151.385 51.0984C151.413 50.8492 151.241 50.6095 150.981 50.5807ZM147.408 51.3189C146.919 51.5394 146.438 51.8079 145.997 52.1913C145.805 51.6928 145.564 51.2039 145.228 50.7821C144.844 50.274 144.325 49.8521 143.759 49.5837C143.672 49.5358 143.576 49.507 143.48 49.4687C143.595 49.4687 143.711 49.4687 143.826 49.4495C144.45 49.392 145.075 49.2482 145.67 48.9701C146.217 48.7209 146.727 48.347 147.159 47.8772C147.322 48.3758 147.524 48.8551 147.802 49.2865C148.148 49.8042 148.571 50.2835 149.099 50.6383C149.147 50.6766 149.204 50.7054 149.252 50.7437C148.628 50.8683 148.014 51.0505 147.408 51.3189Z" fill="#6A7079"/>
<path d="M100.644 46.4583C99.7032 43.9562 99.2902 38.578 104.477 36.1237C110.162 33.4394 114.475 37.7343 115.954 40.3803L112.756 42.173C112.487 41.7033 109.98 37.5713 106.042 39.4312C102.681 41.0226 103.92 44.7615 104.073 45.1833L100.635 46.4583H100.644Z" fill="#0069FF"/>
<path d="M115.954 40.3708C115.724 39.9585 115.426 39.5175 115.08 39.0574L110.163 39.5175C111.267 40.1503 112.045 41.1281 112.448 41.7225L114.033 41.4541L115.964 40.3612L115.954 40.3708Z" fill="#114FB9"/>
<path d="M100.616 46.3818L103.9 44.4549C103.766 43.8221 103.651 42.8922 103.881 41.9431L100.087 43.8221C100.155 44.8096 100.366 45.7012 100.606 46.3914L100.616 46.3818Z" fill="#114FB9"/>
<path d="M108.76 37.0919C108.885 37.0919 109 37.1015 109.125 37.1206C109.183 37.1206 109.241 37.1398 109.308 37.1494C109.337 37.1494 109.365 37.159 109.394 37.1686C109.308 37.1494 109.452 37.1782 109.394 37.1686C109.634 37.2261 109.855 37.3028 110.076 37.3987C110.095 37.4082 110.124 37.4178 110.143 37.4274C110.163 37.4274 110.172 37.4466 110.191 37.4466C110.22 37.4658 110.211 37.4562 110.163 37.4274C110.201 37.4274 110.287 37.4945 110.316 37.5137C110.412 37.5712 110.508 37.6383 110.604 37.7054C110.652 37.7438 110.7 37.7821 110.748 37.8205C110.768 37.8396 110.796 37.8588 110.816 37.878C110.768 37.8301 110.902 37.9547 110.816 37.878C110.912 37.9643 110.998 38.0506 111.085 38.1464C111.248 38.3382 112.083 38.7696 112.276 38.5874C112.468 38.4053 112.458 37.6479 112.276 37.4466C111.526 36.6029 109.961 36.1428 108.828 36.114C108.578 36.114 108.319 36.2866 108.309 36.555C108.299 36.8043 108.482 37.0727 108.751 37.0727L108.76 37.0919Z" fill="#5A90F6"/>
<path d="M124.079 98.6012C123.416 98.8313 122.869 99.023 122.322 99.2148C115.234 101.669 108.155 104.142 101.048 106.568C97.2253 107.872 93.6524 104.957 94.3535 101.161C94.6897 99.3586 95.775 98.141 97.4462 97.4124C100.452 96.099 101.499 93.7215 100.424 90.6154C98.4258 84.8249 96.4089 79.044 94.4016 73.2632C90.1276 60.9441 94.6993 49.0084 106.109 42.6236C106.109 42.6236 108.904 41.1664 111.689 40.5912C114.475 40.016 116.194 39.9009 116.194 39.9009C126.922 39.3257 136.959 45.9502 140.58 56.0644C142.741 62.0849 144.786 68.1438 146.89 74.1835C148.1 77.6539 150.194 78.8044 153.718 77.9511C156.36 77.3088 158.953 78.7085 159.75 81.1819C160.566 83.7416 159.251 86.4163 156.561 87.3558C149.483 89.8388 142.385 92.2739 135.297 94.7281C134.73 94.9199 134.173 95.1212 133.386 95.3896" fill="#0069FF"/>
<path d="M127.085 108.159C133.61 108.159 138.899 102.88 138.899 96.3675C138.899 89.8551 133.61 84.5757 127.085 84.5757C120.561 84.5757 115.272 89.8551 115.272 96.3675C115.272 102.88 120.561 108.159 127.085 108.159Z" fill="#0069FF"/>
<path d="M138.832 95.3897C138.755 94.2488 138.515 93.1559 138.14 92.1301L115.704 99.4545C116.098 100.816 116.732 102.062 117.548 103.165L138.851 96.2141C138.851 95.9361 138.851 95.6677 138.841 95.3897H138.832Z" fill="#114FB9"/>
<path d="M101.057 106.635C108.155 104.219 115.243 101.736 122.331 99.2818C122.879 99.0901 123.436 98.8984 124.089 98.6683L133.405 95.4471C134.193 95.1787 134.759 94.9773 135.316 94.7856C142.404 92.3314 149.502 89.8963 156.581 87.4133C159.068 86.5409 160.365 84.1729 159.884 81.7954L94.8242 104.401C95.8999 106.424 98.4163 107.527 101.057 106.635Z" fill="#1F5EE5"/>
<path d="M146.909 74.2507C146.688 73.6179 146.477 72.9852 146.256 72.3621C140.196 74.7588 123.964 81.1532 98.8872 87.3942C99.329 88.6597 99.7708 89.9156 100.203 91.181C100.376 91.6892 100.472 92.1685 100.539 92.6383C126.625 86.1384 142.952 79.6097 148.772 77.2705C147.995 76.609 147.38 75.6024 146.909 74.2507Z" fill="#1F5EE5"/>
<path opacity="0.3" d="M112.516 96.4057C111.056 92.6285 109.337 93.5776 103.353 74.1834C98.426 58.2117 99.4248 54.6166 101.432 45.8926C93.5085 52.6321 90.7233 62.823 94.3633 73.2918C96.3706 79.0823 98.3876 84.8535 100.385 90.644C101.461 93.7501 100.404 96.1277 97.4079 97.4411C95.7368 98.1697 94.6515 99.3872 94.3153 101.19C93.6142 104.986 97.187 107.9 101.01 106.597C105.687 105.005 114.129 102.139 118.807 100.518C116.905 100.739 113.755 99.5598 112.525 96.3865L112.516 96.4057Z" fill="#114FB9"/>
<path d="M134.683 53.6676C133.981 51.7982 132.915 50.0822 131.6 48.5674C129.967 46.6884 127.969 44.9053 125.741 44.9628C124.569 44.9915 124.79 45.9119 125.472 46.3241C129.688 48.8455 132.07 53.3129 134.039 57.5983C134.222 57.6558 134.423 57.6654 134.615 57.6558C134.663 57.6558 135.192 57.4544 134.903 57.5887C135.518 56.5149 135.201 55.0673 134.683 53.6676Z" fill="#5A90F6"/>
<path d="M122.514 42.9208C122.456 42.8824 122.399 42.8441 122.351 42.8153C122.226 42.7386 122.111 42.6715 121.986 42.5948C121.851 42.5277 121.717 42.4606 121.582 42.3935C121.534 42.3743 121.496 42.3551 121.448 42.336C121.448 42.336 121.333 42.288 121.304 42.288C121.16 42.2401 121.016 42.2017 120.872 42.173C120.824 42.173 120.775 42.1538 120.727 42.1538C120.708 42.1538 120.67 42.1538 120.622 42.1538C120.574 42.1538 120.526 42.1538 120.478 42.1538C120.459 42.1538 120.439 42.1538 120.411 42.173C120.401 42.173 120.382 42.173 120.372 42.1826C120.334 42.2113 120.314 42.2209 120.305 42.2209C120.276 42.2689 120.247 42.3264 120.218 42.3839C120.218 42.3839 120.209 42.4127 120.19 42.4414C120.17 42.4989 120.151 42.566 120.132 42.6236C120.132 42.6619 120.122 42.7098 120.113 42.7578C120.113 42.777 120.113 42.7961 120.113 42.8153C120.113 42.8632 120.113 42.9112 120.113 42.9591C120.113 42.9783 120.113 42.9879 120.113 42.9975C120.132 43.055 120.142 43.1125 120.161 43.17C120.161 43.1796 120.17 43.1988 120.18 43.2179C120.19 43.2467 120.209 43.2755 120.218 43.2851C120.247 43.333 120.276 43.3809 120.305 43.4289C120.334 43.4768 120.372 43.5247 120.401 43.5727C120.478 43.6494 120.555 43.7356 120.631 43.8123C120.679 43.8603 120.727 43.8986 120.785 43.9465C120.785 43.9465 120.804 43.9657 120.824 43.9753C120.852 43.9945 120.9 44.0328 120.92 44.0424C120.968 44.0712 121.025 44.1095 121.073 44.1383C121.188 44.2054 121.304 44.2629 121.419 44.3204C121.467 44.3396 121.505 44.3588 121.553 44.378C121.563 44.378 121.582 44.3875 121.592 44.3875C121.842 44.4642 122.082 44.5218 122.331 44.5601C122.331 44.5601 122.331 44.5601 122.351 44.5601C122.408 44.5601 122.475 44.5601 122.533 44.5601C122.648 44.5601 122.773 44.5601 122.888 44.5505C122.898 44.5505 122.908 44.5505 122.917 44.5505C122.975 44.5409 123.023 44.5313 123.081 44.5122C123.177 44.4834 123.273 44.4547 123.369 44.4259C123.369 44.3971 123.369 44.3684 123.369 44.3396C123.369 44.3204 123.369 44.3013 123.369 44.2917C123.369 44.2821 123.369 44.2629 123.349 44.2437C123.311 44.0904 123.273 43.9465 123.215 43.8027C123.196 43.7644 123.167 43.6877 123.157 43.6685C123.119 43.5918 123.071 43.5247 123.033 43.448C123.013 43.4193 122.965 43.3522 122.946 43.3234C122.898 43.2755 122.86 43.2179 122.812 43.17C122.725 43.0741 122.62 42.9975 122.524 42.9208H122.514Z" fill="#5A90F6"/>
<path opacity="0.3" d="M134.106 103.836C131.052 105.082 127.652 105.331 124.598 104.564C120.775 103.596 120.679 102.762 120.161 102.062C119.633 101.688 120.132 102.177 119.988 102.206C118.97 102.398 120.843 102.062 119.834 102.283C119.853 102.283 119.873 102.283 119.882 102.273C119.834 102.283 119.767 102.302 119.748 102.302C119.613 102.331 119.479 102.359 119.335 102.388C119.085 102.446 118.835 102.503 118.576 102.561C118.144 102.666 117.712 102.781 117.289 102.896C119.556 106.28 123.522 108.399 127.883 108.111C131.965 107.843 135.422 105.533 137.333 102.244C136.507 102.494 134.884 103.5 134.097 103.816L134.106 103.836Z" fill="#114FB9"/>
<path d="M65.2141 61.5384C65.1373 61.5384 65.0604 61.5192 65.0028 61.4712C64.878 61.3658 64.8684 61.1741 64.974 61.059L67.183 58.5185C67.2887 58.3939 67.4808 58.3843 67.596 58.4897C67.7209 58.5952 67.7305 58.7869 67.6248 58.902L65.4158 61.4425C65.3582 61.5096 65.2909 61.5384 65.2141 61.5479V61.5384Z" fill="#EFBAC7"/>
<path d="M67.9612 61.222C67.8843 61.222 67.8075 61.2028 67.7499 61.1548C67.625 61.0494 67.6154 60.8577 67.7211 60.7426L69.9301 58.2021C70.0357 58.0775 70.2278 58.0679 70.3431 58.1733C70.4679 58.2788 70.4775 58.4705 70.3719 58.5856L68.1629 61.1261C68.1052 61.1932 68.038 61.2219 67.9612 61.2315V61.222Z" fill="#EFBAC7"/>
<path d="M70.7078 60.896C70.6309 60.896 70.5541 60.8768 70.4965 60.8289C70.3716 60.7235 70.362 60.5317 70.4677 60.4167L72.6767 57.8762C72.7823 57.7515 72.9744 57.7419 73.0897 57.8474C73.2145 57.9529 73.2241 58.1446 73.1185 58.2596L70.9095 60.8002C70.8518 60.8673 70.7846 60.896 70.7078 60.9056V60.896Z" fill="#EFBAC7"/>
<path d="M86.7952 65.699C86.6607 65.699 86.5167 65.699 86.3822 65.699C84.7591 65.5935 83.693 64.4239 83.6738 62.7175C83.6642 61.8163 83.693 61.4424 83.7218 61.0781L83.741 60.7713C83.7986 59.851 84.1828 58.5472 84.9127 57.7227C85.537 57.0133 86.1997 56.7353 86.8624 56.8983C88.1206 57.205 88.7449 58.854 89.5132 61.9793C89.7437 62.9284 89.5132 63.8967 88.889 64.6444C88.3511 65.2772 87.602 65.6606 86.7952 65.7086V65.699ZM86.4782 58.4705C86.4782 58.4705 86.3534 58.5472 86.1325 58.7869C85.7387 59.2279 85.4122 60.129 85.3641 60.8672L85.3353 61.2028C85.3065 61.5479 85.2873 61.8643 85.2969 62.6887C85.2969 63.2831 85.5178 64.0117 86.4879 64.0692C86.9393 64.098 87.3523 63.9158 87.6404 63.5803C87.9285 63.2352 88.0342 62.7846 87.9285 62.3532C87.1986 59.3813 86.7376 58.5951 86.4686 58.4609L86.4782 58.4705Z" fill="#262626"/>
<path d="M94.2814 51.1048C95.6234 51.0995 96.707 50.0092 96.7016 48.6697C96.6962 47.3301 95.6039 46.2486 94.2619 46.2539C92.9199 46.2593 91.8364 47.3496 91.8418 48.6891C91.8472 50.0287 92.9394 51.1102 94.2814 51.1048Z" fill="#262626"/>
<path d="M72.7834 54.9872C74.1254 54.9818 75.2089 53.8915 75.2035 52.552C75.1981 51.2124 74.1059 50.1309 72.7639 50.1363C71.4219 50.1416 70.3384 51.2319 70.3437 52.5714C70.3491 53.911 71.4414 54.9925 72.7834 54.9872Z" fill="#262626"/>
<path d="M60.1914 105.053C82.5792 104.133 101.846 95.6675 101.846 95.6675C101.846 95.6675 106.946 93.8939 109.74 92.1587L110.711 91.593C110.711 91.593 118.116 87.8638 117.395 84.8439C116.435 80.827 113.842 81.987 113.842 81.987L113.87 81.9391C114.956 80.2901 114.84 78.3153 113.054 76.7718C111.613 75.5351 109.327 76.7238 109.327 76.7238C110.701 73.541 107.272 71.4127 104.679 73.4643C103.344 74.5189 98.1768 77.4045 93.8452 79.2739C90.4548 80.7407 85.1628 81.8145 81.5323 82.5047C67.3658 85.189 54.4575 81.1434 54.4575 81.1434" fill="#D4DEEB"/>
<path d="M60.1914 105.053C76.5188 103.998 92.5198 99.4926 107.407 92.8394C109.76 91.478 118.019 87.72 116.723 84.47C116.416 83.2717 115.388 81.9871 114.082 82.4952L112.439 83.1183C113.025 82.1596 114.12 80.8846 114.024 79.7054C113.986 78.4399 113.016 76.9156 111.661 76.7622C110.547 76.6184 109.222 77.3758 108.233 77.8359L108.847 76.5034C109.981 74.1642 107.503 72.2852 105.409 73.5794C101.212 76.4075 96.6689 78.7659 91.8859 80.4915C84.6058 82.6294 76.9895 84.0099 69.3828 83.6264C64.3308 83.358 59.2981 82.591 54.4575 81.1434C59.3366 82.4376 64.3789 83.032 69.3924 83.1375C74.4059 83.2525 79.4482 82.6581 84.3272 81.5461C89.2831 80.5778 93.9797 78.996 98.4073 76.5513C100.655 75.3817 102.825 74.1929 104.881 72.707C107.839 70.8951 111.335 73.6273 109.827 76.9348L109.087 76.2445C110.317 75.6597 111.901 75.3529 113.15 76.1582C114.303 77.0019 115.09 78.229 115.129 79.6862C115.157 80.6353 114.812 81.5556 114.312 82.2938L113.611 81.4694C115.993 80.5203 117.703 82.9074 117.971 84.9973C118.106 86.5504 116.877 87.835 115.916 88.7266C111.892 92.0628 106.792 94.4116 102.038 96.1085C88.7356 101.448 74.5211 104.583 60.1817 105.043L60.1914 105.053Z" fill="#D4DEEB"/>
<path d="M106.484 79.3794C107.474 78.066 108.713 77.2991 109.731 76.0432C109.702 77.7305 108.021 78.996 106.484 79.3794Z" fill="#AFB7C1"/>
<path d="M109.98 84.1632C111.536 82.9937 113.025 82.1884 114.639 81.0955C113.841 82.8882 111.892 83.9907 109.98 84.1632Z" fill="#AFB7C1"/>
<path d="M53.3145 102.465C64.129 104.334 75.2317 103.356 85.8542 100.844C93.8354 99.0229 101.721 96.5303 109.058 92.8777C111.517 91.6793 113.87 90.2701 116.118 88.6882C107.551 95.6962 96.7264 99.3296 86.1039 101.937C75.4046 104.42 64.033 105.254 53.3145 102.465Z" fill="#AFB7C1"/>
<path d="M96.7455 76.9252C96.9183 75.4009 97.5042 73.9246 98.5223 72.7741C99.281 71.9209 100.251 71.2306 101.317 71.4511C103.766 71.9497 103.315 74.8161 102.7 77.0403C102.086 79.2644 96.6494 77.7401 96.6494 77.7401L96.7455 76.9156V76.9252Z" fill="#D4DEEB"/>
<path d="M81.8011 136.901L80.8407 106.415L46.3896 109.137L47.8015 127.237L75.2221 136.373L81.8011 136.901Z" fill="#E9F0FF"/>
<path d="M57.0507 114.784C56.801 114.765 56.5993 114.573 56.5705 114.324C56.5417 114.046 56.753 113.796 57.0315 113.768C57.3773 113.739 57.5213 113.672 57.7134 113.585C57.9343 113.49 58.2032 113.365 58.7219 113.327C59.1829 113.288 59.423 113.298 59.6535 113.307C59.8552 113.307 60.0473 113.327 60.4411 113.288C60.8829 113.25 61.1038 113.24 61.3343 113.24C61.536 113.24 61.7473 113.231 62.1603 113.192C62.554 113.154 62.7557 113.116 62.9478 113.077C63.1687 113.029 63.3992 112.981 63.8602 112.943C64.2636 112.905 64.4557 112.866 64.6574 112.828C64.8879 112.78 65.1088 112.732 65.5698 112.694C66.0597 112.656 66.319 112.694 66.5495 112.723C66.7512 112.751 66.9241 112.78 67.2986 112.742C67.75 112.703 67.9805 112.703 68.211 112.713C68.4127 112.713 68.6144 112.713 69.0178 112.684C69.402 112.646 69.5845 112.608 69.7862 112.55C70.0071 112.493 70.2472 112.435 70.7178 112.387C71.2076 112.339 71.4669 112.387 71.6974 112.416C71.8991 112.445 72.072 112.473 72.4466 112.435C72.7251 112.416 72.9748 112.617 73.0036 112.895C73.0325 113.173 72.8212 113.422 72.5426 113.451C72.0528 113.49 71.7935 113.451 71.563 113.422C71.3613 113.394 71.1884 113.365 70.8138 113.403C70.4297 113.442 70.2472 113.48 70.0455 113.537C69.8246 113.595 69.5845 113.653 69.1139 113.7C68.6624 113.739 68.4319 113.739 68.2014 113.729C67.9997 113.729 67.7981 113.729 67.3947 113.758C66.9048 113.796 66.6455 113.758 66.415 113.729C66.2133 113.7 66.0404 113.672 65.6659 113.71C65.2625 113.748 65.0704 113.787 64.8687 113.825C64.6382 113.873 64.4173 113.921 63.9563 113.959C63.5625 113.998 63.3608 114.036 63.1687 114.074C62.9478 114.122 62.7173 114.17 62.2563 114.209C61.8145 114.247 61.5936 114.257 61.3727 114.257C61.1614 114.257 60.9597 114.266 60.5467 114.304C60.0857 114.343 59.8456 114.333 59.6151 114.324C59.4134 114.324 59.2213 114.304 58.8275 114.343C58.4818 114.372 58.3377 114.439 58.1456 114.525C57.9247 114.621 57.6558 114.745 57.1372 114.784C57.1083 114.784 57.0891 114.784 57.0603 114.784H57.0507Z" fill="#A7C3FF"/>
<path d="M57.2524 121.763C57.0027 121.744 56.801 121.552 56.7722 121.303C56.7433 121.025 56.9546 120.776 57.2332 120.747C57.5789 120.718 57.723 120.651 57.9151 120.565C58.136 120.469 58.4049 120.344 58.9236 120.306C59.3846 120.267 59.6247 120.277 59.8552 120.287C60.0569 120.287 60.249 120.306 60.6427 120.267C61.0845 120.229 61.3054 120.22 61.5359 120.22C61.7376 120.22 61.9489 120.21 62.3619 120.172C62.7557 120.133 62.9574 120.095 63.1495 120.057C63.3704 120.009 63.6009 119.961 64.0619 119.922C64.4653 119.884 64.6574 119.846 64.8591 119.807C65.0896 119.759 65.3105 119.711 65.7715 119.673C66.2613 119.635 66.5206 119.673 66.7511 119.702C66.9528 119.731 67.1257 119.759 67.5003 119.721C67.9517 119.683 68.1822 119.683 68.4127 119.692C68.6144 119.692 68.8161 119.692 69.2195 119.664C69.6036 119.625 69.7861 119.587 69.9878 119.529C70.2087 119.472 70.4488 119.414 70.9195 119.366C71.4093 119.318 71.6686 119.366 71.8991 119.395C72.1008 119.424 72.2737 119.453 72.6482 119.414C72.9268 119.395 73.1765 119.596 73.2053 119.874C73.2341 120.152 73.0228 120.402 72.7443 120.43C72.2545 120.469 71.9951 120.43 71.7646 120.402C71.5629 120.373 71.3901 120.344 71.0155 120.383C70.6313 120.421 70.4488 120.459 70.2471 120.517C70.0262 120.574 69.7861 120.632 69.3155 120.68C68.8641 120.718 68.6336 120.718 68.4031 120.708C68.2014 120.708 67.9997 120.708 67.5963 120.737C67.1065 120.776 66.8472 120.737 66.6167 120.708C66.415 120.68 66.2421 120.651 65.8675 120.689C65.4642 120.728 65.2721 120.766 65.0704 120.804C64.8399 120.852 64.619 120.9 64.1579 120.939C63.7642 120.977 63.5625 121.015 63.3704 121.054C63.1495 121.102 62.919 121.149 62.458 121.188C62.0162 121.226 61.7953 121.236 61.5744 121.236C61.3631 121.236 61.1614 121.245 60.7484 121.284C60.2874 121.322 60.0473 121.312 59.8168 121.303C59.6151 121.303 59.423 121.284 59.0292 121.322C58.6834 121.351 58.5394 121.418 58.3473 121.504C58.1264 121.6 57.8575 121.725 57.3388 121.763C57.31 121.763 57.2908 121.763 57.262 121.763H57.2524Z" fill="#A7C3FF"/>
<g opacity="0.19">
<path d="M78.3145 111.956L78.3337 112.128L78.3145 111.956Z" fill="#BDD2FF"/>
</g>
<path d="M84.0293 134.964L26.0859 108.907L32.6169 152H134.03L140.82 108.907L84.0293 134.964Z" fill="#BDD2FF"/>
<path opacity="0.3" d="M140.82 108.907L46.8218 152H134.03L140.82 108.907Z" fill="#1F5EE5"/>
</svg>
