<svg width="18" height="18" viewBox="0 0 18 18" fill="none" xmlns="http://www.w3.org/2000/svg">
<path fill-rule="evenodd" clip-rule="evenodd" d="M7.24939 13.777C7.32396 14.6781 8.08231 15.3887 9.00879 15.3887C9.93527 15.3887 10.6936 14.6781 10.7682 13.777L11.6967 13.8538C11.5822 15.2364 10.4217 16.3203 9.00879 16.3203C7.59591 16.3203 6.43533 15.2364 6.32092 13.8538L7.24939 13.777Z" fill="#2369FF"/>
<path fill-rule="evenodd" clip-rule="evenodd" d="M8.99286 2.62695C6.35568 2.62695 4.21666 4.7681 4.21666 7.41077L4.21667 9.38909C4.21667 9.9931 3.94901 10.5662 3.48565 10.9534C3.00782 11.3528 2.87402 11.6602 2.87402 11.8737C2.87402 12.573 3.43989 13.1387 4.1365 13.1387H13.8635C14.5601 13.1387 15.126 12.573 15.126 11.8737C15.126 11.6591 14.9911 11.3508 14.5083 10.9515L14.5067 10.9502L14.4959 10.9412L14.4943 10.9399C14.0346 10.5528 13.7691 9.98208 13.7691 9.38043L13.7691 7.41266L13.7684 7.32966C13.7252 4.72451 11.603 2.62695 8.99286 2.62695ZM3.28502 7.41077C3.28502 4.25485 5.83987 1.69531 8.99286 1.69531C12.1144 1.69531 14.6495 4.20391 14.6999 7.31642L14.7 7.32019L14.7007 7.41077L14.7007 9.38042C14.7007 9.70708 14.8448 10.0167 15.0936 10.2266L15.102 10.2336C15.6681 10.7017 16.0576 11.2475 16.0576 11.8737C16.0576 13.0862 15.0759 14.0703 13.8635 14.0703H4.1365C2.92408 14.0703 1.94238 13.0862 1.94238 11.8737C1.94238 11.2513 2.32774 10.707 2.88821 10.2385C3.13955 10.0285 3.28503 9.71736 3.28503 9.38909L3.28502 7.41077Z" fill="#2369FF"/>
</svg>
